<?xml version="1.0" standalone="no"?>
<!DOCTYPE svg PUBLIC "-//W3C//DTD SVG 20010904//EN"
 "http://www.w3.org/TR/2001/REC-SVG-20010904/DTD/svg10.dtd">
<svg version="1.0" xmlns="http://www.w3.org/2000/svg"
 width="500.000000pt" height="500.000000pt" viewBox="0 0 500.000000 500.000000"
 preserveAspectRatio="xMidYMid meet">
<metadata>
Created by potrace 1.15, written by Peter Selinger 2001-2017
</metadata>
<g transform="translate(0.000000,500.000000) scale(0.100000,-0.100000)"
fill="#000000" stroke="none">
<path d="M2290 4264 c-115 -19 -275 -75 -390 -136 -299 -158 -523 -426 -625
-750 -76 -241 -74 -543 6 -783 151 -455 541 -787 1018 -866 105 -17 343 -14
436 5 259 55 473 166 651 338 190 183 315 408 371 668 25 119 25 391 0 510
-133 618 -659 1036 -1294 1029 -48 -1 -126 -7 -173 -15z m750 -983 l0 -269
-71 -17 c-76 -19 -123 -50 -133 -89 -3 -13 14 -155 39 -314 25 -160 45 -298
45 -306 0 -10 -9 -16 -25 -16 -24 0 -25 3 -25 54 0 38 -6 61 -19 77 -18 22
-28 24 -128 27 -98 3 -111 2 -136 -18 -24 -19 -27 -28 -27 -81 l0 -59 -54 0
-54 0 -4 57 c-4 46 -10 61 -32 80 -25 21 -37 23 -132 23 -98 0 -107 -2 -129
-25 -21 -20 -25 -34 -25 -80 0 -52 -1 -55 -25 -55 -14 0 -25 6 -25 13 0 8 20
146 45 307 57 366 56 369 -75 400 -98 23 -90 -4 -90 295 l0 265 540 0 540 0 0
-269z m-935 -375 c12 -18 8 -60 -33 -329 l-47 -307 -32 0 -33 0 0 338 c0 186
2 341 5 344 13 12 127 -25 140 -46z m935 -297 l0 -340 -32 3 -33 3 -47 305
c-54 352 -56 338 39 362 32 8 61 13 66 11 4 -2 7 -157 7 -344z m-652 -286 l3
-53 -40 0 c-37 0 -41 2 -41 25 0 20 -5 25 -25 25 -20 0 -25 -5 -25 -25 0 -22
-4 -25 -40 -25 l-40 0 0 48 c0 27 3 52 7 56 4 4 50 5 103 4 l95 -3 3 -52z
m430 0 l3 -53 -40 0 c-37 0 -41 2 -41 25 0 20 -5 25 -25 25 -20 0 -25 -5 -25
-25 0 -22 -4 -25 -40 -25 l-40 0 0 48 c0 27 3 52 7 56 4 4 50 5 103 4 l95 -3
3 -52z"/>
<path d="M2162 3459 c-70 -20 -142 -122 -142 -200 0 -114 98 -209 215 -209
122 0 207 87 207 211 0 146 -134 240 -280 198z m157 -66 c100 -75 94 -226 -12
-277 -101 -47 -216 12 -233 119 -19 130 142 234 245 158z"/>
<path d="M2214 3332 c-44 -7 -65 -51 -51 -105 14 -51 92 -64 126 -21 49 63 3
139 -75 126z"/>
<path d="M2685 3451 c-47 -22 -99 -74 -114 -114 -6 -16 -11 -55 -11 -87 0 -49
5 -65 33 -106 41 -62 101 -94 173 -94 66 0 100 13 143 53 86 82 94 201 19 291
-59 72 -160 95 -243 57z m155 -54 c58 -31 94 -94 87 -156 -9 -78 -77 -141
-154 -141 -89 0 -151 53 -161 135 -6 57 2 86 35 126 52 61 121 74 193 36z"/>
<path d="M2734 3326 c-51 -22 -60 -81 -19 -121 42 -43 104 -30 124 25 24 69
-37 125 -105 96z"/>
<path d="M2432 3104 c-34 -25 -62 -51 -62 -57 0 -15 108 -205 122 -213 6 -4
20 3 30 16 23 29 108 183 108 197 0 11 -98 89 -123 99 -7 2 -41 -16 -75 -42z"/>
<path d="M990 965 c0 -140 4 -225 10 -225 6 0 11 80 12 206 l3 205 112 -195
112 -196 -100 0 c-59 0 -99 -4 -99 -10 0 -6 45 -10 115 -10 l115 0 0 225 c0
140 -4 225 -10 225 -6 0 -11 -78 -12 -201 l-3 -201 -115 201 c-63 111 -120
201 -127 201 -10 0 -13 -47 -13 -225z"/>
<path d="M1433 1086 c-35 -30 -53 -83 -53 -161 0 -78 18 -131 53 -161 23 -20
40 -24 88 -24 114 0 152 46 152 185 0 139 -38 185 -152 185 -48 0 -65 -4 -88
-24z m169 -7 c35 -19 52 -70 53 -154 0 -63 -4 -87 -21 -115 -24 -42 -72 -62
-129 -54 -73 11 -105 62 -105 169 0 98 31 157 90 168 30 6 88 -1 112 -14z"/>
<path d="M2430 989 c0 -67 5 -139 12 -161 16 -55 58 -88 113 -88 108 0 135 48
135 238 0 81 -4 132 -10 132 -6 0 -10 -50 -10 -130 0 -183 -20 -223 -112 -223
-82 0 -108 55 -108 228 0 77 -4 125 -10 125 -6 0 -10 -47 -10 -121z"/>
<path d="M2810 925 c0 -117 4 -185 10 -185 6 0 10 65 10 176 l0 176 60 -4 c73
-5 114 -31 118 -75 2 -25 -4 -36 -31 -59 l-34 -29 43 -92 c23 -51 47 -93 53
-93 5 0 -9 40 -31 90 l-41 89 32 36 c72 82 8 155 -136 155 l-53 0 0 -185z"/>
<path d="M3142 923 l2 -188 6 170 5 170 103 -167 c57 -93 108 -168 113 -168 5
0 9 80 9 185 0 114 -4 185 -10 185 -6 0 -11 -65 -12 -162 l-3 -163 -100 163
c-55 89 -103 162 -107 162 -5 0 -7 -84 -6 -187z"/>
<path d="M3607 1103 c-21 -36 -148 -356 -143 -360 9 -9 9 -10 76 152 74 179
70 172 82 151 10 -18 118 -276 118 -282 0 -2 -45 -4 -100 -4 -60 0 -100 -4
-100 -10 0 -6 45 -10 115 -10 63 0 115 2 115 4 0 6 -150 359 -154 364 -2 2 -6
0 -9 -5z"/>
</g>
</svg>
